Coordinates
version=1
nRows=12
nColumns=38
inDegrees=yes

Units are S.I. units (second, meters, Newtons, ...)
Angles are in degrees.

endheader
time	pelvis_tilt	pelvis_list	pelvis_rotation	pelvis_tx	pelvis_ty	pelvis_tz	hip_flexion_r	hip_adduction_r	hip_rotation_r	knee_angle_r	ankle_angle_r	subtalar_angle_r	mtp_angle_r	hip_flexion_l	hip_adduction_l	hip_rotation_l	knee_angle_l	ankle_angle_l	subtalar_angle_l	mtp_angle_l	lumbar_extension	lumbar_bending	lumbar_rotation	arm_flex_r	arm_add_r	arm_rot_r	elbow_flex_r	pro_sup_r	wrist_flex_r	wrist_dev_r	arm_flex_l	arm_add_l	arm_rot_l	elbow_flex_l	pro_sup_l	wrist_flex_l	wrist_dev_l
      0.57500000	      0.13113434	     -0.55208808	      5.12907975	      0.96680373	      0.87262592	     -0.01595694	     23.36168590	     -0.12680443	     -0.76372851	     -0.52198003	      5.56604704	      0.00000000	      0.00000000	    -15.14310222	      2.06109718	     17.02930216	    -11.28738259	     23.53482495	      0.00000000	      0.00000000	     -7.64453864	      2.73591005	     -7.38450858	    -12.88396386	    -14.48965488	    -29.09956418	     32.78059696	    113.54977584	      0.00000000	      0.00000000	     16.53967028	    -15.64404405	     -6.15942824	     53.49833203	    106.38557549	      0.00000000	      0.00000000
      0.58000000	      0.12972158	     -0.60333065	      5.29522180	      0.97317406	      0.87201223	     -0.01562568	     23.36841026	     -0.08028921	     -0.50081878	     -1.06065405	      5.37622111	      0.00000000	      0.00000000	    -15.42944792	      1.91174198	     17.04800168	    -11.53846764	     23.50086448	      0.00000000	      0.00000000	     -7.52638765	      2.85123240	     -7.58807832	    -13.06135754	    -14.52014207	    -29.14809119	     32.69344883	    113.56129661	      0.00000000	      0.00000000	     16.44921214	    -15.44198314	     -6.10517924	     53.55128136	    106.38797185	      0.00000000	      0.00000000
      0.58500000	      0.05826714	     -0.91471384	      5.24332123	      0.97951845	      0.87117522	     -0.01513725	     23.65532530	      0.31128818	     -0.58585219	     -1.90455704	      4.18982352	      0.00000000	      0.00000000	    -15.64082909	      1.56273406	     16.90389300	    -11.77403322	     23.40781904	      0.00000000	      0.00000000	     -7.35028576	      3.28370413	     -7.57912030	    -13.10403335	    -14.65736927	    -29.39010175	     32.53118180	    113.63807916	      0.00000000	      0.00000000	     16.20635599	    -15.21944400	     -6.12233706	     54.08006668	    106.37796332	      0.00000000	      0.00000000
      0.59000000	      0.01852911	     -1.06778959	      5.36358150	      0.98613554	      0.87043010	     -0.01476716	     23.74230029	      0.49042243	     -0.66906415	     -2.57363148	      3.11244642	      0.00000000	      0.00000000	    -15.87197717	      1.31175587	     16.75221086	    -12.04995442	     23.25233665	      0.00000000	      0.00000000	     -7.16897161	      3.53504269	     -7.76095191	    -13.21763442	    -14.70118341	    -29.70735972	     32.41042215	    113.74602962	      0.00000000	      0.00000000	     15.90042138	    -15.02549911	     -6.13322612	     54.53707974	    106.37833679	      0.00000000	      0.00000000
      0.59500000	      0.00632612	     -1.22372217	      5.47125148	      0.99272223	      0.86975495	     -0.01430733	     23.80876818	      0.70081037	     -0.67961214	     -3.27570621	      2.41121315	      0.00000000	      0.00000000	    -16.11353217	      1.06990612	     16.72566807	    -12.36603742	     23.08789012	      0.00000000	      0.00000000	     -7.02068963	      3.78068561	     -7.90233776	    -13.33149026	    -14.74825379	    -29.91858601	     32.29948644	    113.82461695	      0.00000000	      0.00000000	     15.67265270	    -14.84161532	     -6.11697456	     54.82466128	    106.38279468	      0.00000000	      0.00000000
      0.60000000	      0.00165077	     -1.25039555	      5.61599401	      0.99947750	      0.86921033	     -0.01392548	     23.72059687	      0.76601446	     -0.46483689	     -3.80016800	      2.20938143	      0.00000000	      0.00000000	    -16.38064491	      0.95567585	     16.75486812	    -12.66676718	     23.01182254	      0.00000000	      0.00000000	     -6.85219675	      3.86255651	     -8.06614504	    -13.54318479	    -14.77200815	    -29.97338838	     32.20496912	    113.83441931	      0.00000000	      0.00000000	     15.48819134	    -14.64202788	     -6.06591116	     54.85183409	    106.38798651	      0.00000000	      0.00000000
      0.60500000	     -0.10754730	     -1.59593214	      5.62588354	      1.00606688	      0.86845599	     -0.01339806	     23.93331867	      1.19546462	     -0.68414511	     -4.48686261	      0.89336230	      0.00000000	      0.00000000	    -16.43781525	      0.55323600	     16.46246690	    -13.08372198	     22.55421909	      0.00000000	      0.00000000	     -6.60224470	      4.31926885	     -8.12119845	    -13.60187302	    -14.88035720	    -30.31530729	     32.06538079	    113.91721902	      0.00000000	      0.00000000	     15.11082374	    -14.40904399	     -6.10053930	     55.43986128	    106.39300046	      0.00000000	      0.00000000
      0.61000000	     -0.09958988	     -1.63865045	      5.72862858	      1.01268345	      0.86804802	     -0.01294163	     23.85091913	      1.31147496	     -0.49595650	     -4.97668939	      0.67239696	      0.00000000	      0.00000000	    -16.65349104	      0.44830987	     16.53672262	    -13.49182642	     22.44047603	      0.00000000	      0.00000000	     -6.47919669	      4.42751724	     -8.24420965	    -13.75533822	    -14.88366508	    -30.37086239	     31.98748123	    113.92750080	      0.00000000	      0.00000000	     14.89731840	    -14.21866721	     -6.05441170	     55.45202473	    106.39920464	      0.00000000	      0.00000000
      0.61500000	     -0.16916367	     -1.94633323	      5.75825969	      1.01895618	      0.86752987	     -0.01245003	     23.97758248	      1.70940031	     -0.53358353	     -5.56097192	     -0.49523826	      0.00000000	      0.00000000	    -16.62469479	      0.12166870	     16.40770005	    -14.11825320	     21.89661015	      0.00000000	      0.00000000	     -6.32969045	      4.84622899	     -8.30761229	    -13.73340109	    -14.98938068	    -30.59729109	     31.88470290	    113.97005571	      0.00000000	      0.00000000	     14.67907078	    -13.99491603	     -6.05743130	     55.81539796	    106.40713377	      0.00000000	      0.00000000
      0.62000000	     -0.33043501	     -2.18370862	      5.81088708	      1.02580825	      0.86706108	     -0.01191685	     24.01059862	      2.00701094	     -0.66901352	     -5.82514680	     -1.87947355	      0.00000000	      0.00000000	    -16.55329856	     -0.18347480	     16.04246547	    -14.67122448	     21.32596450	      0.00000000	      0.00000000	     -5.97498998	      5.16117208	     -8.38387057	    -13.83067394	    -15.02830116	    -30.92456191	     31.71703584	    114.03838965	      0.00000000	      0.00000000	     14.23567304	    -13.75889196	     -6.12318882	     56.14815153	    106.42450409	      0.00000000	      0.00000000
      0.62500000	     -0.32209510	     -2.23497078	      5.85903106	      1.03245579	      0.86695782	     -0.01143027	     23.88993932	      2.13449076	     -0.50433693	     -6.25943597	     -2.10504263	      0.00000000	      0.00000000	    -16.71526058	     -0.25759482	     16.13994970	    -15.15793357	     21.16642769	      0.00000000	      0.00000000	     -5.85447299	      5.28271719	     -8.44085820	    -13.93825167	    -15.02338547	    -30.97387425	     31.65013153	    114.04798681	      0.00000000	      0.00000000	     13.95990641	    -13.54062015	     -6.06979285	     56.11616778	    106.43385361	      0.00000000	      0.00000000
      0.63000000	     -0.45770087	     -2.57370740	      5.87059144	      1.03867237	      0.86669406	     -0.01086627	     24.00365538	      2.53724980	     -0.59119033	     -6.68947406	     -3.30264040	      0.00000000	      0.00000000	    -16.46070678	     -0.60715708	     15.79757447	    -16.00390227	     20.27748971	      0.00000000	      0.00000000	     -5.64202810	      5.73382480	     -8.43559518	    -13.88911795	    -15.09711685	    -31.24536696	     31.50969238	    114.09812188	      0.00000000	      0.00000000	     13.74493111	    -13.26780230	     -6.10484971	     56.35312900	    106.45104938	      0.00000000	      0.00000000
